HIERARCHY
ROOT joint_0
{
	OFFSET 0.000000 0.000000 0.000000
	CHANNELS 6 Xposition Yposition Zposition Zrotation Yrotation Xrotation 
	JOINT joint_1
	{
		OFFSET 0.000000 0.000000 0.000000
		CHANNELS 3 Zrotation Yrotation Xrotation
		JOINT joint_2
		{
			OFFSET 3.811170 -8.520760 0.839290
			CHANNELS 3 Zrotation Yrotation Xrotation
			JOINT joint_3
			{
				OFFSET 2.562200 -7.039590 0.000000
				CHANNELS 3 Zrotation Yrotation Xrotation
				JOINT joint_4
				{
					OFFSET 0.157640 -0.433110 2.322550
					CHANNELS 3 Zrotation Yrotation Xrotation
					End Site
					{
						OFFSET 0.000000 0.000000 0.000000
					}
				}
			}
		}
	}
	JOINT joint_5
	{
		OFFSET 0.000000 0.000000 0.000000
		CHANNELS 3 Zrotation Yrotation Xrotation
		JOINT joint_6
		{
			OFFSET -3.848050 -8.780180 0.839290
			CHANNELS 3 Zrotation Yrotation Xrotation
			JOINT joint_7
			{
				OFFSET -2.568260 -7.056230 0.000000
				CHANNELS 3 Zrotation Yrotation Xrotation
				JOINT joint_8
				{
					OFFSET -0.164730 -0.452590 2.363150
					CHANNELS 3 Zrotation Yrotation Xrotation
					End Site
					{
						OFFSET 0.000000 0.000000 0.000000
					}
				}
			}
		}
	}
	JOINT joint_9
	{
		OFFSET 0.028270 2.035590 -0.193380
		CHANNELS 3 Zrotation Yrotation Xrotation
		JOINT joint_10
		{
			OFFSET 0.056720 2.048850 -0.042750
			CHANNELS 3 Zrotation Yrotation Xrotation
			JOINT joint_11
			{
				OFFSET -0.054170 1.746240 0.172020
				CHANNELS 3 Zrotation Yrotation Xrotation
				JOINT joint_12
				{
					OFFSET 0.104070 1.761360 -0.123970
					CHANNELS 3 Zrotation Yrotation Xrotation
					End Site
					{
						OFFSET 0.000000 0.000000 0.000000
					}
				}
			}
			JOINT joint_13
			{
				OFFSET 3.362410 1.200890 -0.311210
				CHANNELS 3 Zrotation Yrotation Xrotation
				JOINT joint_14
				{
					OFFSET 4.983000 -0.000000 -0.000000
					CHANNELS 3 Zrotation Yrotation Xrotation
					JOINT joint_15
					{
						OFFSET 3.483560 -0.000000 -0.000000
						CHANNELS 3 Zrotation Yrotation Xrotation
						JOINT joint_16
						{
							OFFSET 0.715260 -0.000000 -0.000000
							CHANNELS 3 Zrotation Yrotation Xrotation
							End Site
							{
								OFFSET 0.000000 0.000000 0.000000
							}
						}
					}
				}
			}
			JOINT joint_17
			{
				OFFSET -3.136600 1.374050 -0.404650
				CHANNELS 3 Zrotation Yrotation Xrotation
				JOINT joint_18
				{
					OFFSET -5.241900 -0.000000 -0.000000
					CHANNELS 3 Zrotation Yrotation Xrotation
					JOINT joint_19
					{
						OFFSET -3.444170 -0.000000 -0.000000
						CHANNELS 3 Zrotation Yrotation Xrotation
						JOINT joint_20
						{
							OFFSET -0.622530 -0.000000 -0.000000
							CHANNELS 3 Zrotation Yrotation Xrotation
							End Site
							{
								OFFSET 0.000000 0.000000 0.000000
							}
						}
					}
				}
			}
		}
	}
}
MOTION
Frames: 16
Frame Time: 0.031667
4.847296 15.567984 -2.364512 -5.013435 -25.555210 3.808602 -6.157382 2.529913 -23.804819 -1.956943 11.607680 27.147262 -1.182462 -1.377760 -5.323624 0.422690 -3.408246 -10.392313 7.642472 -3.145765 -15.146851 1.243136 -14.086019 36.276343 1.390658 -0.661110 -11.315384 -0.159201 3.731402 -7.812091 1.703285 -1.408267 -2.613509 2.608836 -0.281575 -4.498855 3.504621 -0.726186 7.516218 2.519768 0.659407 6.121287 -55.239449 -33.223251 25.021525 93.864676 -58.501443 -53.699132 0.882400 3.007355 -2.949536 -6.870004 0.139088 0.150012 85.561025 26.976119 36.619667 -87.332642 61.000928 -50.573288 0.164708 -0.783604 -4.665935 7.267336 0.101578 0.127814 
4.817107 15.564921 -2.375835 -4.960369 -25.233309 3.832239 -5.030604 0.867437 -26.829716 -3.190424 12.838688 26.417748 -0.258958 -7.443055 -10.299317 0.452750 -4.050514 -11.981523 6.466577 -5.385361 -14.845969 2.641426 -15.038783 36.599472 0.288558 2.384225 -15.081763 -0.166484 3.020255 -6.603765 1.106102 -1.806601 -3.565637 1.662836 -0.696672 -5.633779 2.224422 0.078757 5.260317 1.997114 0.687281 5.384269 -52.660890 -34.888512 20.672870 94.343382 -58.252259 -53.236094 1.030990 2.935029 -2.037026 -6.964799 0.051538 0.088467 86.652895 32.941171 34.841146 -90.159765 61.180411 -51.596888 0.294734 -1.397459 -0.683910 7.172807 0.023692 0.039470 
4.786918 15.561857 -2.387158 -4.907456 -24.911741 3.856510 -5.004674 0.850307 -30.782486 -3.303787 13.540710 28.527197 1.480737 -12.291189 -16.081147 0.703999 -5.337230 -15.407238 5.843308 -6.909047 -15.330789 2.130890 -16.785626 38.261367 -1.409385 4.028302 -14.518483 -0.216116 2.864779 -6.838815 0.728584 -3.150718 -5.825408 0.445901 -0.988093 -6.925843 0.093511 1.483367 3.130951 1.444823 0.889007 5.076377 -49.710899 -34.894874 16.351170 93.471032 -59.219556 -51.206304 0.915354 3.579372 -1.659681 -7.021151 -0.000053 0.051504 87.813670 36.096819 31.522673 -90.549719 60.644414 -49.873534 -0.189587 -1.949916 -0.930657 7.096998 -0.022748 -0.008958 
4.756367 15.558990 -2.397638 -4.866138 -24.549143 3.883723 -4.605245 0.603011 -35.859858 -3.546913 14.176915 30.804368 4.466340 -19.178844 -19.242330 0.812684 -6.101439 -17.292871 5.402985 -8.403324 -15.459753 1.891633 -18.327387 39.703694 -0.926187 4.235813 -14.292580 -0.377632 3.137214 -8.457631 0.640810 -3.955970 -7.895757 0.339785 -2.322340 -7.698440 0.062972 1.433606 0.425874 1.041441 0.873307 4.890399 -48.386980 -35.881227 12.494296 90.137192 -59.228678 -48.133027 0.626817 3.157556 -2.628021 -7.118736 -0.105167 -0.039964 87.656935 37.801379 27.508357 -92.539598 60.691859 -49.862391 -0.456314 -2.135303 -0.828691 6.963715 -0.115643 -0.115828 
4.725811 15.556126 -2.408110 -4.825040 -24.186731 3.911492 -3.857034 1.163677 -38.167806 -4.490580 14.697551 30.382517 2.991396 -15.587658 -21.147745 1.051338 -7.143203 -20.095629 5.002996 -7.884410 -16.435841 1.999886 -19.046258 40.084061 -1.976888 2.285762 -11.964167 -0.448340 2.829354 -8.186958 0.401357 -4.685705 -10.303104 0.205278 -2.090108 -8.240706 0.006457 2.041331 -0.077345 0.735364 1.235143 4.327198 -47.532237 -35.153379 9.251892 89.763945 -58.826281 -46.555937 0.383182 3.397960 -5.845503 -7.212578 -0.211994 -0.135374 88.784731 40.448400 25.950059 -98.203016 59.954751 -54.326512 -0.478561 -1.869585 -3.646098 6.821309 -0.210204 -0.225391 
4.695186 15.553324 -2.417671 -4.793570 -23.777342 3.938570 -4.629128 1.233293 -39.966182 -6.487414 15.731941 28.848488 4.519323 -16.313429 -22.472633 1.384693 -8.206546 -23.063052 3.777335 -8.565043 -16.448052 4.139521 -19.013899 38.966525 -1.750680 0.628735 -11.221751 -0.456973 2.229849 -6.958705 -1.058313 -5.218560 -9.666281 0.506468 -3.116679 -9.804443 -0.510623 2.774195 -2.805306 0.174044 1.477289 3.872220 -48.109369 -33.680909 9.251981 88.404140 -58.828343 -43.896247 0.236254 3.366013 -9.614281 -7.295660 -0.290689 -0.207856 89.774997 41.124847 25.217808 -98.279417 60.244378 -52.369559 -0.357793 -2.839077 -5.653144 6.723383 -0.281637 -0.306712 
4.664560 15.550523 -2.427211 -4.762252 -23.367880 3.965985 -5.695269 2.954664 -41.578611 -7.082181 15.298664 28.372946 4.656877 -11.862250 -22.695799 1.621076 -8.919609 -24.943673 2.617381 -8.722318 -16.681593 5.313885 -18.467384 34.720566 -2.272403 -1.499653 -9.541504 -0.555169 2.388709 -7.968825 -1.112056 -6.789340 -9.392108 0.615680 -3.354074 -10.497721 -1.559391 2.877892 -4.647828 -0.102637 1.570215 3.688284 -48.374501 -32.249710 9.523234 90.506528 -59.448639 -45.164047 0.220512 3.498902 -12.515258 -7.353348 -0.362233 -0.264176 90.013912 40.512874 24.748964 -99.413371 60.206840 -51.897496 -1.126988 -3.514536 -6.363440 6.632236 -0.344098 -0.374294 
4.634356 15.547652 -2.435450 -4.730384 -22.914324 3.990155 -5.504982 3.272362 -44.002128 -6.311861 15.437241 28.318875 4.331433 -8.278985 -23.316054 1.812603 -9.228921 -25.838155 1.373668 -9.951542 -15.952003 6.111315 -18.157482 32.477742 -4.202402 -3.722361 -10.891486 -0.467108 2.061145 -7.010216 -1.714075 -7.523916 -9.828880 -0.207745 -3.581336 -10.464335 -0.746206 3.889694 -5.166202 0.170907 1.919038 3.929278 -50.303457 -30.108201 10.940600 88.378201 -59.013012 -43.102113 0.493530 4.163375 -13.357992 -7.329438 -0.316392 -0.206951 87.291590 41.513341 22.338664 -97.898616 59.744117 -50.563964 -0.793172 -3.363498 -7.691099 6.695566 -0.300713 -0.313224 
4.604167 15.544780 -2.443646 -4.698308 -22.460527 4.014283 -6.192466 5.006743 -45.274527 -6.144206 16.637057 31.012510 4.037242 -3.199043 -23.699959 1.739117 -9.095976 -25.317374 1.866097 -10.615086 -16.470631 6.121873 -18.934479 32.241275 -3.571620 -3.854806 -11.625279 -0.457103 1.983888 -6.895172 -3.343140 -8.551131 -10.183157 -1.260315 -5.685246 -10.266828 -0.936778 4.161320 -7.104314 0.105874 1.934567 3.868350 -52.725488 -28.837622 12.470592 84.305012 -58.768124 -38.673325 0.000706 4.499538 -13.272763 -7.329297 -0.316991 -0.191769 89.060250 41.661166 23.181718 -97.618230 59.359332 -49.494504 -1.118835 -2.824572 -7.720522 6.713271 -0.299488 -0.297459 
4.574755 15.541664 -2.450464 -4.659977 -21.971764 4.033286 -6.548613 5.634704 -45.513289 -6.203381 19.283373 34.122066 4.837814 -3.376482 -26.647441 1.434571 -8.415341 -23.145057 2.049082 -11.119067 -11.971443 7.453530 -18.177147 31.641550 -4.683961 -4.420844 -17.097538 -0.474838 2.264252 -7.844799 -4.446616 -8.241865 -9.587633 -1.833733 -4.584893 -11.054310 -1.469152 2.619301 -8.844225 -0.566464 1.840772 3.576243 -55.840174 -27.786074 13.601724 84.285154 -60.060465 -38.921481 0.464439 4.256874 -12.941404 -7.323078 -0.297995 -0.161364 89.603738 41.364982 23.319600 -96.159979 60.126028 -47.922859 -0.995089 -3.453079 -8.990754 6.743873 -0.281734 -0.268320 
4.545377 15.538537 -2.457219 -4.621037 -21.482920 4.051727 -6.249941 8.481068 -47.469610 -4.998963 20.950339 37.338994 4.772476 -3.196650 -26.050277 1.194971 -7.836063 -21.361304 2.487248 -13.146041 -9.320725 7.564337 -18.030079 30.337292 -5.358376 -4.393834 -18.366947 -0.465414 2.230518 -7.853770 -4.942962 -8.992956 -6.126654 -2.308983 -4.239917 -11.110997 -1.239413 2.933124 -9.824147 -0.861265 1.657551 3.627574 -57.189533 -26.862922 12.804602 81.444108 -60.003218 -36.991536 1.006481 3.981479 -14.434349 -7.317223 -0.286533 -0.145473 88.555333 40.390100 24.023987 -90.328976 60.354949 -43.023642 -0.501073 -3.633716 -7.479122 6.765578 -0.271052 -0.253740 
4.516542 15.534935 -2.463170 -4.581652 -20.968489 4.067556 -7.652765 8.623619 -46.924551 -3.906377 22.017819 40.092742 6.168914 -5.110440 -26.839217 0.928964 -7.237367 -19.482463 3.147008 -14.598089 -5.035103 7.293871 -17.614185 30.806613 -5.283483 -3.680142 -21.035672 -0.449879 1.748810 -6.870290 -5.631091 -9.618703 -6.359812 -2.075588 -4.551388 -11.496359 -0.713496 2.346511 -11.087314 -0.765684 1.352493 3.381734 -59.698303 -25.900763 13.583956 76.624553 -59.699557 -33.107371 0.588647 4.336355 -14.711685 -7.353262 -0.317591 -0.168932 89.639838 39.009069 27.960589 -85.711281 58.852804 -38.939537 -1.465136 -3.869235 -6.603820 6.724728 -0.300369 -0.287788 
4.487737 15.531307 -2.469074 -4.541675 -20.454391 4.082503 -8.485361 9.901763 -47.685121 -4.238286 22.521232 41.795096 5.241489 -2.130415 -26.767259 0.803730 -6.870672 -18.418679 2.752956 -17.206354 -0.311796 7.566673 -19.183567 32.437135 -6.260639 -3.665026 -24.485344 -0.443603 1.737126 -6.834666 -6.609322 -8.862821 -6.821041 -2.117370 -4.426256 -12.233450 0.253225 2.198212 -12.185311 -0.483650 1.185561 3.928150 -60.677800 -26.711665 12.931963 72.632934 -59.644342 -29.893833 1.214489 4.218605 -14.048889 -7.347465 -0.313903 -0.164037 89.325793 37.065226 29.833968 -80.880133 58.889059 -34.007800 -2.045644 -3.944289 -4.022402 6.721880 -0.297939 -0.280199 
4.458851 15.527076 -2.475104 -4.513051 -19.916304 4.102259 -7.899230 8.784369 -48.218843 -4.500832 22.067912 42.376292 4.710325 -2.328778 -24.462492 0.752579 -6.580683 -17.673539 3.025203 -19.091112 1.620146 6.905682 -19.257749 35.111695 -6.330315 -3.459784 -25.558980 -0.367878 1.428277 -5.688505 -6.966090 -7.881501 -7.295491 -1.790766 -3.551063 -12.077305 0.093456 1.460753 -12.140526 -0.444165 1.209215 4.656852 -62.658622 -28.860013 12.103158 71.301319 -59.190919 -28.302381 1.295642 4.771330 -12.535572 -7.301665 -0.272215 -0.121792 90.665203 35.042678 32.232663 -77.962652 59.085444 -31.471776 -1.931785 -4.213976 -1.836916 6.765535 -0.260850 -0.232091 
4.429958 15.522803 -2.481144 -4.484348 -19.378630 4.121274 -6.187493 6.523944 -46.606594 -5.876167 22.661126 40.515587 4.373082 -0.739277 -24.540770 0.592059 -5.980583 -15.952046 3.857246 -19.530923 2.835609 7.043287 -20.532932 36.541143 -7.703943 -3.164833 -25.754585 -0.356964 1.572611 -5.934285 -7.652307 -6.720936 -5.336007 -1.956764 -2.831252 -12.198037 -0.517723 2.894302 -12.492036 -1.026132 1.371498 4.922837 -63.049305 -29.915637 8.449259 67.416652 -59.179176 -25.033745 2.327286 4.634005 -11.670975 -7.280869 -0.249690 -0.090088 89.538782 32.988254 33.678682 -72.829317 58.522437 -27.199030 -1.580771 -3.961159 -0.872410 6.798455 -0.240350 -0.209353 
4.400309 15.517949 -2.488713 -4.471485 -18.805061 4.150620 -8.598781 4.286218 -46.617681 -6.205969 22.544605 41.100439 4.016229 -1.387728 -23.674267 0.413398 -5.229712 -13.907618 5.100266 -21.650946 2.912594 6.757890 -22.004748 40.051066 -7.247912 -3.135994 -28.305802 -0.456101 2.641202 -8.669328 -8.801851 -6.441244 -5.316107 -0.751508 -3.268726 -12.274577 -0.843979 2.098635 -14.264920 -1.376462 1.252686 4.395475 -63.342163 -31.275160 4.999055 69.275760 -59.996175 -25.666930 2.403271 5.260919 -9.675779 -7.277518 -0.229221 -0.059039 90.861663 31.021516 36.466965 -70.218704 57.428020 -24.349579 -1.676810 -4.579038 -0.321865 6.839393 -0.223767 -0.180015 
